<svg width="24" height="24" viewBox="0 0 24 24" fill="none" xmlns="http://www.w3.org/2000/svg">
<path d="M15.908 20.0001C15.6628 20.0001 15.464 19.8013 15.464 19.5561V18.0241H15.296C15.1325 18.0241 15 17.8916 15 17.7281C15 17.5646 15.1325 17.4321 15.296 17.4321H15.464V16.8561H15.296C15.1325 16.8561 15 16.7236 15 16.5601C15 16.3966 15.1325 16.2641 15.296 16.2641H15.464V15.0129C15.464 14.6126 15.7885 14.2881 16.1888 14.2881C16.505 14.2881 16.7847 14.4931 16.88 14.7946L17.344 16.2641H18.072V14.7321C18.072 14.4869 18.2708 14.2881 18.516 14.2881C18.7612 14.2881 18.96 14.4869 18.96 14.7321V16.2641H19.12C19.2835 16.2641 19.416 16.3966 19.416 16.5601C19.416 16.7236 19.2835 16.8561 19.12 16.8561H18.96V17.4321H19.12C19.2835 17.4321 19.416 17.5646 19.416 17.7281C19.416 17.8916 19.2835 18.0241 19.12 18.0241H18.96V19.5001C18.96 19.7762 18.7361 20.0001 18.46 20.0001H18.0596C17.8428 20.0001 17.6508 19.8604 17.584 19.6542L17.056 18.0241H16.352V19.5561C16.352 19.8013 16.1532 20.0001 15.908 20.0001ZM16.32 16.2641H16.544L16.312 15.4961H16.28L16.32 16.2641ZM16.352 17.4321H16.88L16.704 16.8561H16.336L16.352 17.4321ZM17.72 17.4321H18.088L18.072 16.8561H17.536L17.72 17.4321ZM18.096 18.7521H18.136L18.104 18.0241H17.888L18.096 18.7521Z" fill=""/>
<path d="M17 23.25C20.3137 23.25 23 20.5637 23 17.25C23 13.9363 20.3137 11.25 17 11.25C13.6863 11.25 11 13.9363 11 17.25C11 20.5637 13.6863 23.25 17 23.25Z" stroke="" stroke-width="1.5" stroke-linecap="round" stroke-linejoin="round"/>
<path d="M3.75 6.75H14.25" stroke="" stroke-width="1.5" stroke-linecap="round" stroke-linejoin="round"/>
<path d="M3.75 11.25H9.75" stroke="" stroke-width="1.5" stroke-linecap="round" stroke-linejoin="round"/>
<path d="M3.75 15.75H7.5" stroke="" stroke-width="1.5" stroke-linecap="round" stroke-linejoin="round"/>
<path d="M7.5 20.25H2.25C1.85218 20.25 1.47064 20.092 1.18934 19.8107C0.908035 19.5294 0.75 19.1478 0.75 18.75V2.25C0.75 1.85218 0.908035 1.47064 1.18934 1.18934C1.47064 0.908035 1.85218 0.75 2.25 0.75H12.879C13.2765 0.750085 13.6578 0.907982 13.939 1.189L16.811 4.061C17.092 4.3422 17.2499 4.72345 17.25 5.121V8.25" stroke="" stroke-width="1.5" stroke-linecap="round" stroke-linejoin="round"/>
</svg>
