<svg width="24" height="24" viewBox="0 0 24 24" fill="none" xmlns="http://www.w3.org/2000/svg">
<path d="M7.5 12C9.77817 12 11.625 10.1532 11.625 7.875C11.625 5.59683 9.77817 3.75 7.5 3.75C5.22183 3.75 3.375 5.59683 3.375 7.875C3.375 10.1532 5.22183 12 7.5 12Z" stroke="" stroke-width="1.5" stroke-linecap="round" stroke-linejoin="round"/>
<path d="M0.75 20.25C0.75 18.4598 1.46116 16.7429 2.72703 15.477C3.9929 14.2112 5.70979 13.5 7.5 13.5C9.29021 13.5 11.0071 14.2112 12.273 15.477C13.5388 16.7429 14.25 18.4598 14.25 20.25" stroke="" stroke-width="1.5" stroke-linecap="round" stroke-linejoin="round"/>
<path d="M17.727 13.5C19.591 13.5 21.102 11.989 21.102 10.125C21.102 8.26104 19.591 6.75 17.727 6.75C15.863 6.75 14.352 8.26104 14.352 10.125C14.352 11.989 15.863 13.5 17.727 13.5Z" stroke="" stroke-width="1.5" stroke-linecap="round" stroke-linejoin="round"/>
<path d="M15.813 15.068C16.6481 14.7602 17.5451 14.6587 18.4279 14.7721C19.3106 14.8854 20.1529 15.2103 20.8832 15.7191C21.6134 16.2279 22.2099 16.9056 22.622 17.6944C23.034 18.4833 23.2495 19.36 23.25 20.25" stroke="" stroke-width="1.5" stroke-linecap="round" stroke-linejoin="round"/>
</svg>
