<svg width="24" height="24" viewBox="0 0 24 24" fill="none" xmlns="http://www.w3.org/2000/svg">
<path d="M10.546 2.43804C10.7295 2.64173 10.9537 2.8046 11.2042 2.91609C11.4547 3.02757 11.7258 3.08518 12 3.08518C12.2741 3.08518 12.5453 3.02757 12.7957 2.91609C13.0462 2.8046 13.2705 2.64173 13.454 2.43804L14.4 1.40004C14.6711 1.09998 15.0284 0.891177 15.423 0.802295C15.8175 0.713414 16.2298 0.748806 16.6034 0.903615C16.977 1.05842 17.2936 1.32506 17.5096 1.66693C17.7256 2.0088 17.8305 2.40915 17.81 2.81304L17.739 4.21303C17.7252 4.48614 17.7689 4.7591 17.867 5.01432C17.9652 5.26954 18.1158 5.50137 18.309 5.69487C18.5022 5.88837 18.7338 6.03925 18.9889 6.1378C19.244 6.23634 19.5169 6.28037 19.79 6.26704L21.19 6.19604C21.5936 6.17614 21.9935 6.28155 22.3349 6.49782C22.6762 6.7141 22.9424 7.03065 23.0968 7.4041C23.2512 7.77755 23.2863 8.18961 23.1974 8.58382C23.1085 8.97802 22.8998 9.33507 22.6 9.60604L21.558 10.546C21.3545 10.7298 21.1919 10.9542 21.0806 11.2047C20.9693 11.4553 20.9118 11.7264 20.9118 12.0005C20.9118 12.2747 20.9693 12.5458 21.0806 12.7963C21.1919 13.0469 21.3545 13.2713 21.558 13.455L22.6 14.395C22.9 14.6662 23.1088 15.0235 23.1977 15.418C23.2866 15.8125 23.2512 16.2249 23.0964 16.5985C22.9416 16.9721 22.675 17.2886 22.3331 17.5046C21.9912 17.7207 21.5909 17.8256 21.187 17.805L19.787 17.734C19.5133 17.72 19.2396 17.7635 18.9838 17.8618C18.728 17.9602 18.4957 18.1111 18.3019 18.3049C18.1081 18.4987 17.9571 18.7311 17.8588 18.9869C17.7604 19.2427 17.7169 19.5163 17.731 19.79L17.802 21.19C17.8199 21.5919 17.7136 21.9895 17.4977 22.3289C17.2818 22.6683 16.9666 22.9329 16.595 23.0869C16.2234 23.241 15.8134 23.2768 15.4207 23.1897C15.028 23.1026 14.6716 22.8967 14.4 22.6L13.459 21.559C13.2753 21.3556 13.051 21.193 12.8005 21.0817C12.5501 20.9704 12.2791 20.9129 12.005 20.9129C11.7309 20.9129 11.4599 20.9704 11.2094 21.0817C10.959 21.193 10.7347 21.3556 10.551 21.559L9.60598 22.6C9.33479 22.8981 8.97827 23.1053 8.58503 23.1934C8.19178 23.2814 7.78094 23.2461 7.40852 23.0921C7.0361 22.9382 6.72023 22.6731 6.50395 22.3331C6.28767 21.9931 6.18153 21.5946 6.19998 21.192L6.27198 19.792C6.28606 19.5183 6.24252 19.2447 6.14418 18.9889C6.04583 18.7331 5.89488 18.5007 5.70108 18.3069C5.50728 18.1131 5.27495 17.9622 5.01913 17.8638C4.76331 17.7655 4.48969 17.722 4.21598 17.736L2.81598 17.807C2.41226 17.8281 2.01192 17.7237 1.66992 17.5081C1.32791 17.2926 1.06101 16.9765 0.905862 16.6032C0.75071 16.2298 0.714912 15.8177 0.803384 15.4232C0.891855 15.0287 1.10026 14.6713 1.39998 14.4L2.44098 13.46C2.64443 13.2763 2.80706 13.0519 2.91837 12.8013C3.02968 12.5508 3.0872 12.2797 3.0872 12.0055C3.0872 11.7314 3.02968 11.4603 2.91837 11.2097C2.80706 10.9592 2.64443 10.7348 2.44098 10.551L1.39998 9.60604C1.10123 9.33504 0.893463 8.97839 0.805081 8.58484C0.716699 8.19129 0.752015 7.78005 0.906202 7.40733C1.06039 7.03461 1.32592 6.71861 1.6665 6.50251C2.00708 6.28642 2.40609 6.18078 2.80898 6.20004L4.20898 6.27104C4.48321 6.28545 4.7574 6.24203 5.01376 6.14357C5.27011 6.04512 5.50289 5.89385 5.69697 5.69958C5.89105 5.50531 6.0421 5.27238 6.1403 5.01594C6.2385 4.75949 6.28166 4.48525 6.26698 4.21104L6.19998 2.81003C6.18109 2.4073 6.28691 2.00854 6.50302 1.66818C6.71913 1.32781 7.035 1.06241 7.40752 0.908198C7.78004 0.753984 8.19107 0.718465 8.58452 0.806488C8.97797 0.89451 9.33468 1.10179 9.60598 1.40004L10.546 2.43804Z" stroke="" stroke-width="1.5" stroke-linecap="round" stroke-linejoin="round"/>
<path d="M12 16.501C14.4853 16.501 16.5 14.4863 16.5 12.001C16.5 9.5157 14.4853 7.50098 12 7.50098C9.51472 7.50098 7.5 9.5157 7.5 12.001C7.5 14.4863 9.51472 16.501 12 16.501Z" stroke="" stroke-width="1.5" stroke-linecap="round" stroke-linejoin="round"/>
</svg>
