<svg viewBox="0 0 24 24" fill="none" xmlns="http://www.w3.org/2000/svg">
<path d="M4.69995 8.78003C5.66668 9.7824 6.91592 10.4664 8.28121 10.7408C9.6465 11.0152 11.063 10.867 12.342 10.316" stroke="" stroke-width="1.5" stroke-linecap="round" stroke-linejoin="round"/>
<path d="M8.24902 15C10.5272 15 12.374 13.1532 12.374 10.875C12.374 8.59683 10.5272 6.75 8.24902 6.75C5.97085 6.75 4.12402 8.59683 4.12402 10.875C4.12402 13.1532 5.97085 15 8.24902 15Z" stroke="" stroke-width="1.5" stroke-linecap="round" stroke-linejoin="round"/>
<path d="M11.999 23.25C18.2122 23.25 23.249 18.2132 23.249 12C23.249 5.7868 18.2122 0.75 11.999 0.75C5.78582 0.75 0.749023 5.7868 0.749023 12C0.749023 18.2132 5.78582 23.25 11.999 23.25Z" stroke="" stroke-width="1.5" stroke-linecap="round" stroke-linejoin="round"/>
<path d="M14.9871 22.848C14.9075 21.5019 14.4266 20.2106 13.6063 19.1404C12.786 18.0703 11.664 17.2704 10.3849 16.8438C9.10576 16.4172 7.72818 16.3836 6.42977 16.7472C5.13135 17.1109 3.97162 17.8551 3.1001 18.884" stroke="" stroke-width="1.5" stroke-linecap="round" stroke-linejoin="round"/>
<path d="M17.624 15.75C19.0738 15.75 20.249 14.5747 20.249 13.125C20.249 11.6753 19.0738 10.5 17.624 10.5C16.1743 10.5 14.999 11.6753 14.999 13.125C14.999 14.5747 16.1743 15.75 17.624 15.75Z" stroke="" stroke-width="1.5" stroke-linecap="round" stroke-linejoin="round"/>
<path d="M21.2739 18.368C20.8162 17.733 20.2008 17.2285 19.4884 16.9041C18.7761 16.5797 17.9914 16.4468 17.212 16.5184C16.4325 16.59 15.6852 16.8636 15.0439 17.3123C14.4025 17.7611 13.8893 18.3693 13.5549 19.077" stroke="" stroke-width="1.5" stroke-linecap="round" stroke-linejoin="round"/>
</svg>
