<svg viewBox="0 0 24 24" fill="none" xmlns="http://www.w3.org/2000/svg">
<g clip-path="url(#clip0)">
<path d="M12.37 22.54L12.38 22.547C13.2441 23.0972 14.27 23.3361 15.2882 23.2243C16.3064 23.1125 17.256 22.6566 17.98 21.932L18.609 21.303C18.7484 21.1637 18.859 20.9983 18.9345 20.8163C19.0099 20.6342 19.0487 20.4391 19.0487 20.242C19.0487 20.045 19.0099 19.8498 18.9345 19.6678C18.859 19.4857 18.7484 19.3203 18.609 19.181L15.956 16.53C15.8167 16.3906 15.6513 16.2801 15.4693 16.2046C15.2872 16.1292 15.0921 16.0904 14.895 16.0904C14.698 16.0904 14.5028 16.1292 14.3208 16.2046C14.1387 16.2801 13.9733 16.3906 13.834 16.53C13.5528 16.8112 13.1713 16.9692 12.7735 16.9692C12.3758 16.9692 11.9943 16.8112 11.713 16.53L7.47104 12.287C7.18984 12.0057 7.03186 11.6243 7.03186 11.2265C7.03186 10.8288 7.18984 10.4473 7.47104 10.166V10.166C7.61043 10.0267 7.72101 9.86134 7.79645 9.67928C7.87189 9.49723 7.91072 9.3021 7.91072 9.10504C7.91072 8.90797 7.87189 8.71284 7.79645 8.53079C7.72101 8.34874 7.61043 8.18334 7.47104 8.04404L4.81904 5.39304C4.53775 5.11183 4.15629 4.95386 3.75854 4.95386C3.3608 4.95386 2.97934 5.11183 2.69804 5.39304L2.06804 6.02204C1.34364 6.74622 0.887965 7.69587 0.776326 8.71407C0.664687 9.73227 0.903761 10.7581 1.45404 11.622L1.46004 11.632C4.36623 15.9318 8.06972 19.6346 12.37 22.54V22.54Z" stroke="" stroke-width="1.5" stroke-linecap="round" stroke-linejoin="round"/>
<path d="M23.25 0.75L13.5 10.5" stroke="" stroke-width="1.5" stroke-linecap="round" stroke-linejoin="round"/>
<path d="M17.25 0.75H23.25V6.75" stroke="" stroke-width="1.5" stroke-linecap="round" stroke-linejoin="round"/>
</g>
<defs>
<clipPath id="clip0">
<rect width="24" height="24" fill="white"/>
</clipPath>
</defs>
</svg>
