<svg viewBox="0 0 22 24" fill="none" xmlns="http://www.w3.org/2000/svg">
<path fill-rule="evenodd" clip-rule="evenodd" d="M9.5 1.46027C9.5 1.46027 2 1.46027 2 14.9714L0.5 16.4727C0.5 20.5073 21.5 20.601 21.5 16.4727L20 14.9714C20 1.46027 12.5 1.46027 12.5 1.46027C12.5 -0.46325 9.5 -0.510125 9.5 1.46027ZM5 15.9847C5 15.9847 5 4.46265 11 4.46265C17 4.46265 17 15.9847 17 15.9847C12.5 16.4725 9.5 16.4725 5 15.9847Z" fill="#6B6D7E"/>
<path d="M6.66406 20.6151C8.09375 25.1517 13.9062 25.1047 15.3359 20.6151C12.5 20.9764 9.5 20.9764 6.66406 20.6151Z" fill="#6B6D7E"/>
</svg>
