<svg width="1440" height="900" viewBox="0 0 1440 900" fill="none" xmlns="http://www.w3.org/2000/svg">
<path d="M1439.87 0H0V899.962H1439.87V0Z" fill="#3F415B"/>
<path d="M437.36 794.029C338.999 769.506 236.318 757.806 135.618 772.205C89.5418 778.618 44.096 790.88 0 809.779V900H759.351C655.05 862.652 551.65 823.391 446.539 796.279C443.479 795.492 440.42 794.817 437.36 794.029Z" fill="#404166"/>
<path d="M1439.87 0H0V809.741C44.096 790.841 89.5418 778.467 135.618 772.055C236.318 757.768 338.999 769.355 437.36 793.879C440.42 794.666 443.479 795.454 446.539 796.129C551.65 823.128 655.05 862.501 759.351 899.849H1439.87V0Z" fill="#3F4171"/>
<path d="M430.521 653.597C433.4 654.497 436.28 655.51 439.07 656.41C615.634 715.47 788.868 806.591 973.171 855.076C1129.94 896.249 1287.69 887.925 1439.87 843.602V0H0V646.735C47.0657 626.936 95.8412 615.574 144.977 611.974C241.538 604.549 338.099 623.448 430.521 653.597Z" fill="#3F427C"/>
<path d="M0 0V483.054C50.0354 462.355 102.141 452.343 154.246 451.893C246.757 450.993 337.109 477.43 423.591 513.203C426.291 514.328 428.901 515.453 431.601 516.578C596.825 586.325 760.7 680.934 937.714 732.681C1105.73 781.842 1276.35 771.38 1439.78 718.507V0H0Z" fill="#3D4288"/>
<path d="M163.605 291.813C251.977 298.562 336.299 331.411 416.752 372.922C419.272 374.159 421.701 375.509 424.221 376.746C578.107 457.293 732.623 555.051 902.348 610.399C1081.25 668.672 1265.37 656.297 1439.87 593.75V0H0V318.586C53.0951 296.537 108.53 287.65 163.605 291.813Z" fill="#3A4293"/>
<path d="M1439.87 0H0V153.331C56.0649 129.819 114.919 122.395 172.964 131.732C257.196 145.344 335.399 185.392 409.913 232.528C412.252 233.99 414.502 235.452 416.842 236.915C559.389 328.149 704.546 429.169 867.071 488.004C1056.5 556.626 1254.76 543.127 1439.96 469.33V0H1439.87Z" fill="#3C4599"/>
<path d="M409.361 97.0834C540.569 199.117 676.366 302.95 831.602 365.609C1019.33 441.431 1219.74 434.007 1405.66 359.647C1417.18 355.035 1428.52 350.198 1439.95 345.135V3.05176e-05H259.255C309.65 23.9615 357.076 56.9226 402.971 92.2461C405.131 93.821 407.201 95.5085 409.361 97.0834Z" fill="#3F489F"/>
<path d="M1439.91 3.05176e-05H448.201C554.481 96.5209 667.331 185.055 796.289 243.215C968.893 321.061 1156.26 327.249 1331.74 266.951C1368.46 254.352 1404.72 238.602 1440 220.041V3.05176e-05H1439.91Z" fill="#414AA5"/>
<path d="M1257.6 174.143C1300.07 162.218 1341.83 145.681 1382.33 124.87C1401.86 114.858 1421.02 103.721 1439.83 91.6836V3.05176e-05H578.971C635.575 46.9105 695.69 87.9713 760.844 120.82C918.24 200.354 1092.64 220.603 1257.6 174.143Z" fill="#444DAC"/>
<path d="M1183.73 81.4466C1251.5 67.2722 1317.73 39.7108 1378.84 3.05176e-05H728.195C870.112 79.8716 1030.21 113.62 1183.73 81.4466Z" fill="#4650B2"/>
</svg>
