<svg viewBox="0 0 17 16" fill="none" xmlns="http://www.w3.org/2000/svg">
<path d="M11.0001 0C11.5053 0 11.9922 0.0651042 12.461 0.195312C12.9297 0.325521 13.3672 0.510417 13.7735 0.75C14.1797 0.989583 14.5495 1.27865 14.8829 1.61719C15.2214 1.95052 15.5105 2.32031 15.7501 2.72656C15.9896 3.13281 16.1745 3.57031 16.3047 4.03906C16.435 4.50781 16.5001 4.99479 16.5001 5.5C16.5001 6.00521 16.435 6.49219 16.3047 6.96094C16.1745 7.42969 15.9896 7.86719 15.7501 8.27344C15.5105 8.67969 15.2214 9.05208 14.8829 9.39062C14.5495 9.72396 14.1797 10.0104 13.7735 10.25C13.3672 10.4896 12.9297 10.6745 12.461 10.8047C11.9922 10.9349 11.5053 11 11.0001 11C10.349 11 9.72402 10.8906 9.12506 10.6719C8.53131 10.4531 7.98444 10.138 7.48444 9.72656L1.35162 15.8516C1.25267 15.9505 1.13548 16 1.00006 16C0.864644 16 0.747457 15.9505 0.648499 15.8516C0.54954 15.7526 0.500061 15.6354 0.500061 15.5C0.500061 15.3646 0.54954 15.2474 0.648499 15.1484L6.7735 9.01562C6.36204 8.51562 6.04694 7.96875 5.82819 7.375C5.60944 6.77604 5.50006 6.15104 5.50006 5.5C5.50006 4.99479 5.56517 4.50781 5.69537 4.03906C5.82558 3.57031 6.01048 3.13281 6.25006 2.72656C6.48964 2.32031 6.7761 1.95052 7.10944 1.61719C7.44798 1.27865 7.82037 0.989583 8.22662 0.75C8.63287 0.510417 9.07037 0.325521 9.53912 0.195312C10.0079 0.0651042 10.4949 0 11.0001 0ZM11.0001 10C11.6199 10 12.2032 9.88281 12.7501 9.64844C13.2969 9.40885 13.7735 9.08594 14.1797 8.67969C14.586 8.27344 14.9063 7.79688 15.1407 7.25C15.3803 6.70312 15.5001 6.11979 15.5001 5.5C15.5001 4.88021 15.3803 4.29688 15.1407 3.75C14.9063 3.20312 14.586 2.72656 14.1797 2.32031C13.7735 1.91406 13.2969 1.59375 12.7501 1.35938C12.2032 1.11979 11.6199 1 11.0001 1C10.3803 1 9.79694 1.11979 9.25006 1.35938C8.70319 1.59375 8.22662 1.91406 7.82037 2.32031C7.41412 2.72656 7.09121 3.20312 6.85162 3.75C6.61725 4.29688 6.50006 4.88021 6.50006 5.5C6.50006 6.11979 6.61725 6.70312 6.85162 7.25C7.09121 7.79688 7.41412 8.27344 7.82037 8.67969C8.22662 9.08594 8.70319 9.40885 9.25006 9.64844C9.79694 9.88281 10.3803 10 11.0001 10Z" fill="#004578"/>
</svg>
