<svg viewBox="0 0 16 10" fill="none" xmlns="http://www.w3.org/2000/svg">
<path fill-rule="evenodd" clip-rule="evenodd" d="M8.15345 0C9.10755 0 12.8937 0.184326 15.6163 4.13123L15.6613 4.19434C15.8566 4.46826 16.1593 4.89368 15.8976 5.35938C13.465 9.67188 9.50306 10 8.4054 10H7.94056C6.97376 10 3.14368 9.81567 0.418099 5.86877L0.363411 5.79053C0.169075 5.51624 -0.126823 5.0979 0.130989 4.64062C2.56751 0.328125 6.58118 0 7.69154 0H8.15345ZM6.33509 5.20312C6.33509 6.08435 7.04603 6.79688 7.92591 6.79688C8.80482 6.79688 9.51673 6.08435 9.51673 5.20312C9.51673 4.3219 8.80482 3.60938 7.92591 3.60938C7.04603 3.60938 6.33509 4.3219 6.33509 5.20312ZM1.77845 5.0188C2.61439 3.70312 3.71204 2.74695 5.04993 2.17505C5.25599 2.08752 5.45911 2.01257 5.6554 1.9469C4.63197 2.66565 3.96204 3.85632 3.96204 5.20312C3.96204 6.13123 4.27943 6.98438 4.81361 7.66248C3.79603 7.16882 2.714 6.35315 1.77845 5.0188ZM11.8927 5.20312C11.8927 6.25317 11.4845 7.2063 10.8234 7.91565C11.9493 7.46875 13.2345 6.61255 14.2667 4.9812C12.9601 3.1156 11.3937 2.2688 10.1183 1.89062C11.1876 2.60315 11.8927 3.8219 11.8927 5.20312Z" fill="#3A4192"/>
</svg>
